<?xml version="1.0" encoding="UTF-8" standalone="no"?>
<svg
   viewBox="0 0 496.36 500"
   version="1.1"
   id="svg164"
   sodipodi:docname="features.svg"
   inkscape:version="1.2.2 (732a01da63, 2022-12-09)"
   xmlns:inkscape="http://www.inkscape.org/namespaces/inkscape"
   xmlns:sodipodi="http://sodipodi.sourceforge.net/DTD/sodipodi-0.dtd"
   xmlns="http://www.w3.org/2000/svg"
   xmlns:svg="http://www.w3.org/2000/svg">
  <sodipodi:namedview
     id="namedview166"
     pagecolor="#ffffff"
     bordercolor="#000000"
     borderopacity="0.25"
     inkscape:showpageshadow="2"
     inkscape:pageopacity="0.0"
     inkscape:pagecheckerboard="0"
     inkscape:deskcolor="#d1d1d1"
     showgrid="false"
     inkscape:zoom="1.658"
     inkscape:cx="248.19059"
     inkscape:cy="250.30157"
     inkscape:window-width="1920"
     inkscape:window-height="1009"
     inkscape:window-x="-8"
     inkscape:window-y="-8"
     inkscape:window-maximized="1"
     inkscape:current-layer="Слой_2" />
  <defs
     id="defs4">
    <style
       id="style2">.cls-1{fill:#b1b4c4;}.cls-2{fill:#616e84;}.cls-3{fill:#20232d;}.cls-4,.cls-6{fill:#fff;}.cls-5{fill:#2b303f;}.cls-14,.cls-6{opacity:0.1;}.cls-7{fill:#757b89;}.cls-8{fill:#e9eaf2;}.cls-9{fill:#ced0db;}.cls-10{fill:#2b2a30;}.cls-11{fill:#ffcea9;}.cls-12{fill:#f4f4f4;}.cls-13{fill:#e26161;}.cls-15,.cls-21{fill:#d6d8e5;}.cls-15{opacity:0.4;}.cls-16{fill:#ededed;}.cls-17{fill:#38226d;}.cls-18{fill:#9c73ff;}.cls-19{fill:#8c50ff;}.cls-20{fill:#3a2c6d;}.cls-22{fill:#e4e6ef;}.cls-23{fill:#28221c;}.cls-24{fill:#99b524;}.cls-25{fill:#a6ce28;}.cls-26{fill:#d9dce8;}.cls-27{fill:#eff1f9;}.cls-28{fill:#d3d6e2;}.cls-29{fill:#c5c8d3;}</style>
  </defs>
  <title
     id="title6">Telemedicine_SVG</title>
  <g
     id="Слой_2"
     data-name="Слой 2">
    <path
       class="cls-1"
       d="M 419.89468,369.67816 321.04064,313.3861 c -8.37528,-4.75949 -15.16531,-17.5478 -15.16531,-28.54792 V 13.08653 c 0,-11.0001162 6.79003,-16.0576411 15.16531,-11.2891177 L 419.89468,58.044314 C 428.26997,62.812838 435.06,75.60115 435.06,86.601267 V 358.38001 c 0,11.00012 -6.79003,16.06667 -15.16532,11.29815 z"
       id="path8"
       style="stroke-width:0.909707" />
    <polygon
       class="cls-1"
       points="420.36,414.76 428.91,410.44 420.71,396.38 "
       id="polygon10"
       transform="matrix(0.91633333,0,0,0.90312944,36.400023,1.8474501e-4)" />
    <polygon
       class="cls-1"
       points="292.4,4.99 300.27,0.86 298.68,12.46 "
       id="polygon12"
       transform="matrix(0.91633333,0,0,0.90312944,36.400023,1.8474501e-4)" />
    <path
       class="cls-2"
       d="m 413.59031,372.78493 -98.85404,-56.25594 c -8.37529,-4.75949 -15.16532,-17.5478 -15.16532,-28.54792 V 16.193296 c 0,-11.000117 6.79003,-16.05764184 15.16532,-11.2981497 l 98.85404,56.2559327 c 8.37529,4.768524 15.16532,17.547805 15.16532,28.556953 V 361.48678 c 0,11.00914 -6.79003,16.06667 -15.16532,11.29815 z"
       id="path14"
       style="stroke-width:0.909707" />
    <path
       class="cls-3"
       d="M 427.67435,90.403442 V 362.15509 c 0,11.01818 -6.78086,16.06667 -15.15615,11.30718 l -38.77006,-22.06345 -12.04979,-6.83669 -48.01586,-27.33773 c -8.37529,-4.76852 -15.15616,-17.5478 -15.15616,-28.55695 V 16.888705 c 0,-11.0091476 6.78087,-16.05764117 15.15616,-11.298149 l 98.8632,56.246902 c 8.37529,4.777555 15.12866,17.547805 15.12866,28.565984 z"
       id="path16"
       style="stroke-width:0.909707" />
    <path
       class="cls-4"
       d="M 420.57277,87.603741 V 352.31098 c 0,6.65606 -4.73744,9.37448 -10.60198,6.03291 l -30.8621,-17.54781 -2.749,-1.55338 -0.91634,-0.53285 -6.68007,-3.79314 -19.33463,-10.99109 v 0 l -8.01792,-4.5608 -3.22549,-1.80626 -21.90953,-12.46319 c -5.85537,-3.33254 -10.60198,-11.44265 -10.60198,-18.1258 V 22.244263 c 0,-6.674127 4.74661,-9.374484 10.60198,-6.041936 l 38.59596,21.964108 v 0.108376 c 0,5.192994 3.66533,11.505869 8.247,14.09785 4.58167,2.591982 8.247,0.48769 8.247,-4.696273 0,0 0,-0.08128 0,-0.117407 l 38.60512,21.982171 c 5.86454,3.314485 10.60198,11.424587 10.60198,18.062589 z"
       id="path18"
       style="stroke-width:0.909707" />
    <ellipse
       class="cls-5"
       cx="290.16904"
       cy="219.46107"
       rx="2.5474102"
       ry="4.3872108"
       transform="matrix(0.86913939,-0.49456721,0.50545253,0.86285441,0,0)"
       id="ellipse20"
       style="stroke-width:0.909743" />
    <path
       class="cls-6"
       d="m 363.11867,47.351261 a 2.8956133,2.853889 0 0 1 -1.31952,-2.248792 c 0,-0.821848 0.58645,-1.156006 1.31952,-0.740566 a 2.8956133,2.853889 0 0 1 1.32868,2.239761 c 0,0.821848 -0.60478,1.156006 -1.32868,0.749597 z"
       id="path22"
       style="stroke-width:0.909707" />
    <path
       class="cls-7"
       d="m 431.71538,126.15834 v 0 c -0.80637,0.46059 -1.45697,0 -1.45697,-1.08376 v -11.58715 a 3.5003933,3.4499545 0 0 1 1.45697,-2.70939 v 0 c 0.80638,-0.46059 1.45697,0 1.45697,1.09279 v 11.58715 a 3.49123,3.4409232 0 0 1 -1.45697,2.70036 z"
       id="path24"
       style="stroke-width:0.909707" />
    <path
       class="cls-7"
       d="m 431.71538,145.15115 v 0 c -0.80637,0.45156 -1.45697,0 -1.45697,-1.09279 v -11.58715 a 3.5095566,3.4589858 0 0 1 1.45697,-2.75454 v 0 c 0.80638,-0.45157 1.45697,0 1.45697,1.09278 v 11.58715 a 3.5095566,3.4589858 0 0 1 -1.45697,2.75455 z"
       id="path26"
       style="stroke-width:0.909707" />
    <path
       class="cls-8"
       d="m 402.01702,335.78371 -77.75088,-44.25334 c -4.03187,-2.29395 -7.33067,-8.46232 -7.33067,-13.76369 V 135.4696 c 0,-5.3104 3.28047,-7.74885 7.33067,-5.41878 l 77.75088,44.25335 c 4.04103,2.30298 7.33067,8.46232 7.33067,13.77272 v 142.3332 c 0,5.22912 -3.31713,7.66757 -7.33067,5.37362 z"
       id="path28"
       style="stroke-width:0.909707" />
    <ellipse
       class="cls-9"
       cx="208.73409"
       cy="321.43277"
       rx="11.897044"
       ry="20.458542"
       transform="matrix(0.86913939,-0.49456721,0.50545253,0.86285441,0,0)"
       id="ellipse30"
       style="stroke-width:0.909743" />
    <polygon
       class="cls-9"
       points="394,216.73 394,224.41 361.18,205.46 361.18,197.78 "
       id="polygon32"
       transform="matrix(0.91633333,0,0,0.90312944,36.400023,1.8474501e-4)" />
    <polygon
       class="cls-9"
       points="386.43,226.18 386.43,233.85 361.18,219.28 361.18,211.6 "
       id="polygon34"
       transform="matrix(0.91633333,0,0,0.90312944,36.400023,1.8474501e-4)" />
    <polygon
       class="cls-9"
       points="394,261.06 394,268.74 319.61,225.79 319.61,218.12 "
       id="polygon36"
       transform="matrix(0.91633333,0,0,0.90312944,36.400023,1.8474501e-4)" />
    <polygon
       class="cls-9"
       points="376.83,264.97 376.83,272.65 319.61,239.61 319.61,231.93 "
       id="polygon38"
       transform="matrix(0.91633333,0,0,0.90312944,36.400023,1.8474501e-4)" />
    <polygon
       class="cls-9"
       points="393.74,288.55 393.74,296.23 319.35,253.28 319.35,245.6 "
       id="polygon40"
       transform="matrix(0.91633333,0,0,0.90312944,36.400023,1.8474501e-4)" />
    <polygon
       class="cls-9"
       points="376.58,292.46 376.58,300.14 319.35,267.1 319.35,259.42 "
       id="polygon42"
       transform="matrix(0.91633333,0,0,0.90312944,36.400023,1.8474501e-4)" />
    <polygon
       class="cls-9"
       points="393.74,316.19 393.74,323.87 319.35,280.92 319.35,273.24 "
       id="polygon44"
       transform="matrix(0.91633333,0,0,0.90312944,36.400023,1.8474501e-4)" />
    <polygon
       class="cls-9"
       points="393.08,343.44 393.08,351.12 318.69,308.17 318.69,300.5 "
       id="polygon46"
       transform="matrix(0.91633333,0,0,0.90312944,36.400023,1.8474501e-4)" />
    <polygon
       class="cls-9"
       points="376.58,320.1 376.58,327.78 319.35,294.74 319.35,287.06 "
       id="polygon48"
       transform="matrix(0.91633333,0,0,0.90312944,36.400023,1.8474501e-4)" />
    <g
       id="Girl_14"
       transform="matrix(0.91633333,0,0,0.90312944,36.400023,1.8474501e-4)">
      <path
         id="_Контур_"
         data-name="&lt;Контур&gt;"
         class="cls-10"
         d="m 344.14,101.42 c 2.09,-3.36 18.07,-5.57 23.32,8 2,5.13 1.69,18.25 3.36,26.5 1.67,8.25 5.59,12.91 7,19.6 1.41,6.69 -0.89,17.89 -17,19.87 -16.11,1.98 -28.51,-3.67 -32.31,-8.81 -3.8,-5.14 -3.89,-16.06 0.07,-21.92 3.96,-5.86 6.95,-10.64 6.86,-18.27 z" />
      <path
         id="_Контур_2"
         data-name="&lt;Контур&gt;"
         class="cls-10"
         d="m 354.69,99.09 c 0,0 -12,-3.47 -19.32,3 -6.67,5.94 -6.11,14 -5.14,17.83 0.97,3.83 2.91,9 5.93,9.27 3.02,0.27 18.53,-30.1 18.53,-30.1 z" />
      <path
         id="_Контур_3"
         data-name="&lt;Контур&gt;"
         class="cls-11"
         d="m 359.29,131.89 c 0,0 -0.79,13.41 -0.55,14.39 0.24,0.98 5.27,1.94 6.67,3.11 1.4,1.17 -7.29,14.77 -11.71,16.79 -4.42,2.02 -18.12,-3.13 -19.07,-10 -0.87,-6.27 3.92,-11.14 5.77,-12.84 a 27.21,27.21 0 0 1 3.78,-0.1 l 0.4,-6.5 c 6,-1.86 14.71,-4.85 14.71,-4.85 z" />
      <path
         class="cls-11"
         d="m 326.87,157.22 c -0.08,-0.37 -2,0.71 -2.05,0.74 -0.05,0.03 -0.95,34.4 -2.65,37.51 v 0 c -4.28,7.31 -15.66,19.66 -15.94,21.05 -0.84,4.17 1.58,0.43 5.49,0 2.2,-0.27 15.11,-13.34 18,-16.32 l 0.18,0.11 c 0,-0.12 0,-0.23 0.05,-0.34 l 0.38,-0.39 a 17.16,17.16 0 0 0 0.09,-2.78 c 5.37,-37.37 -1.23,-39.86 -3.55,-39.58 z"
         id="path55" />
      <path
         class="cls-4"
         d="m 323.94,162.5 -0.68,16.56 -1.09,13.05 c 0,0 0.21,1.75 -1.71,4.81 -1.92,3.06 -12.18,15.77 -12.18,15.77 l 4.64,3.85 10.57,-8.68 7,-46.76 -3.68,-4.55 z"
         id="path57" />
      <path
         id="_Контур_4"
         data-name="&lt;Контур&gt;"
         class="cls-12"
         d="m 361.13,147.59 c 3.76,0.58 8.07,2.59 8.66,4.65 0.69,2.41 2.18,13.75 -1.08,22.38 -3.26,8.63 -5.46,14.12 -7.33,17.83 0,0 -16.3,7 -29.44,-1.16 0,0 -0.9,-9.24 -1,-14.19 -12.13,-10.58 -1.76,-23.63 8.51,-33.76 a 20.85,20.85 0 0 1 3.7,-0.05 c 0,0 -9.16,10.84 -2.79,17 13.69,-4.13 16.4,-10.29 20.77,-12.7 z" />
      <path
         id="_Контур_5"
         data-name="&lt;Контур&gt;"
         class="cls-11"
         d="m 334.24,115.28 v 0 c 1.36,-8.61 7.58,-15.12 16.46,-14.6 a 17.07,17.07 0 0 1 8.59,31.21 17.47,17.47 0 0 1 -1.37,3.77 c -3.15,3.66 -11.51,6 -14.27,6 -2.38,0 -4.44,-2.2 -6.67,-5.9 -4.66,-7.68 -3.48,-16.22 -2.74,-20.48 z" />
      <path
         class="cls-10"
         d="m 353.45,100.84 c 6.23,1.22 11.36,3 13.05,9.09 1.16,4.21 2.67,12.25 1.23,15.63 l -0.9,2.44 -7.54,3.89 c 0,0 -3.52,-2.93 -2.43,-11.53 a 6.1,6.1 0 0 0 -1.06,-3.26 10,10 0 0 1 -1,-2.6 c -0.76,-2.4 -2.69,-4 -4.89,-5.29 -5.62,-3.15 -13.84,-0.43 -15,0.71 3.76,-7.78 11.3,-10.5 18.54,-9.08 z"
         id="path61" />
      <path
         class="cls-11"
         d="m 375.56,237.18 c -1,10.88 -7.06,57.12 -7.06,57.12 a 86,86 0 0 1 3.74,24 c -0.06,6.73 -1.82,18.15 -3.81,28.73 l -3.49,25.15 -8.33,-4.82 0.33,-18.75 c -0.43,-6.28 -1.05,-15.55 -1.45,-21.48 -0.65,-9.64 -2.38,-25 -2.88,-28.78 -0.5,-3.78 -1.72,-10.5 -2.31,-18 -0.59,-7.5 -3.41,-45.55 -3.41,-45.55 l -0.39,7.13 c 0,0 -0.37,11.58 -2,25.84 -1.63,14.26 -2.26,20.62 -2.26,20.62 0,0 2.89,5.3 3.26,9.21 0.3,3.09 3.82,27.49 1.71,39.91 l -3.09,22.62 -10,-5.74 -1.29,-16.15 c -1.71,-12.1 -5.32,-37.76 -5.88,-41.1 -0.72,-4.39 -1.32,-6.55 -2.16,-20.35 -0.84,-13.8 -0.53,-43.77 0.86,-54.64 1.39,-10.87 5.4,-26.66 5.4,-26.66 a 32,32 0 0 0 12.06,3 c 7,0.36 18.25,-1.77 18.25,-1.77 a 110,110 0 0 0 6.43,9.95 c 3.15,4.33 9.21,13.86 7.77,30.51 z"
         id="path63" />
      <path
         class="cls-13"
         d="m 361.38,192.45 9.36,18.81 c 0,0 14.29,20.91 -0.52,74.67 l 2.78,16.58 c 0,0 -28,18 -46.77,0 0,0 -6.51,-49.68 -3.05,-72.59 A 263.09,263.09 0 0 1 331.91,191 c 0,0 4.59,5.07 28.22,1.72"
         id="path65" />
      <path
         class="cls-4"
         d="m 339.49,143.34 c 0,0 -13.86,2.26 -15.55,19.16 l 3.17,-3.17 c 0,0 7.77,-11.76 12.38,-15.99 z"
         id="path67" />
      <path
         class="cls-4"
         d="m 343.19,143.29 c -3.58,6.91 -13,18.2 -10.33,30.42 3.54,16.29 -3.24,113.9 -3.24,113.9 0,0 -8,-5.07 -8,-9.13 0,-4.06 3,-109.42 3,-114.41 0,-4.99 8.76,-13.85 14.71,-20.77 a 13.79,13.79 0 0 1 4.91,-0.81 c 0,0.37 0,0.42 -0.05,0.8 -0.3,0.02 -0.47,0 -1,0 z"
         id="path69" />
      <polygon
         class="cls-12"
         points="304.39,245.99 281.42,232.72 313.42,214.12 336.4,227.39 "
         id="polygon71" />
      <path
         class="cls-11"
         d="m 309.29,215.48 c -2,0.46 -4,0.61 -5.68,1.86 a 13.68,13.68 0 0 1 -2,1.48 c -0.32,0.17 -0.63,0.37 -1,0.51 a 3.1,3.1 0 0 0 -1.28,0.85 3.16,3.16 0 0 0 -0.57,1.77 7.53,7.53 0 0 0 -0.11,2.32 c 0.28,1.15 1.47,1.06 2.1,0.26 a 2.46,2.46 0 0 0 0.53,-1.4 3.08,3.08 0 0 1 1.35,-2.45 l 7.65,-4.75 a 0.93,0.93 0 0 0 -0.99,-0.45 z"
         id="path73" />
      <path
         class="cls-4"
         d="m 371.47,173.06 c 0,0 -0.26,28.71 0.79,38 1.05,9.29 14.3,36.51 2.63,73.44 -1.72,2 -3.3,6.05 -18,7.75 -8.77,0 -11.95,-1.34 -11.95,-1.34 0,0 3.39,-61.93 -1.53,-116.31 0,-15 12.9,-13.26 15.29,-29.88 11.39,5.32 11.4,7 11.4,7 z"
         id="path75" />
      <path
         class="cls-14"
         d="m 365.69,151.4 c -6.27,0.7 -7.09,8.65 -7.09,8.65 l -0.29,12.17 c 0,0 0.68,15.52 2.48,20.25 l -27.2,18.69 5.93,6.91 c 0,0 28.74,-13.27 31,-15.37 2.26,-2.1 0,-26.45 0.35,-33.46 C 372.38,156 372,150.7 365.69,151.4 Z"
         id="path77" />
      <path
         class="cls-11"
         d="m 370.19,158.13 c -1.06,-4.35 -4.47,-2.95 -7.4,-5.5 -6.81,9.63 -2.29,35.68 -1.37,38.46 l -26.12,16.65 v 0 c -0.42,0.28 -1.32,0.83 -1.75,1.1 -2.37,1.43 -6.93,3.91 -9.71,4.23 -2.62,0.3 -4,4 -6.78,4.31 a 1.08,1.08 0 0 0 -0.71,1.86 c 1.12,1.08 4.11,0.19 6.15,-2.2 a 1,1 0 0 0 0,0.18 2,2 0 0 0 1.64,2 0.94,0.94 0 0 0 0.14,0.49 2,2 0 0 0 1.56,1.13 v 0 a 2,2 0 0 0 2.15,1.39 2.37,2.37 0 0 0 1.57,-0.72 13.81,13.81 0 0 0 5.71,-4.12 57,57 0 0 1 4.24,-3.94 c 7.09,-3.05 28.35,-12.13 29.3,-13.42 1.38,-1.91 2.89,-35.69 1.38,-41.9 z"
         id="path79" />
      <path
         class="cls-4"
         d="m 364.64,149.3 c -6.27,0.7 -7.09,8.65 -7.09,8.65 l -0.29,12.16 c 0,0 0.68,15.53 2.47,20.26 l -27.19,18.69 5.93,6.91 c 0,0 28.74,-13.27 30.95,-15.37 2.21,-2.1 2.77,-23.74 3.15,-30.74 1.56,-13.22 -1.65,-21.26 -7.93,-20.56 z"
         id="path81" />
    </g>
    <g
       id="Men_2"
       transform="matrix(0.91633333,0,0,0.90312944,36.400023,1.8474501e-4)">
      <ellipse
         class="cls-15"
         cx="169.8"
         cy="450.85999"
         rx="49.459999"
         ry="28.559999"
         id="ellipse84" />
      <path
         id="_Контур_6"
         data-name="&lt;Контур&gt;"
         class="cls-11"
         d="m 134.56,239.1 c -0.55,4.81 -6.29,25.56 -5.06,32.67 1.23,7.11 20.84,19 20.84,19 l 2.72,-12.17 -10.86,-10.6 2.93,-20.15 z" />
      <path
         id="_Контур_7"
         data-name="&lt;Контур&gt;"
         class="cls-16"
         d="m 149.73,218.65 c -2.8,-1.21 -8,-1.48 -10.92,3.3 -2.92,4.78 -5.88,21.16 -6.15,24 0,0 4.05,5.59 10.12,4.66 z" />
      <path
         class="cls-17"
         d="m 172.12,450 a 16.84,16.84 0 0 0 12.69,-1.54 c 3.05,0.09 19.64,-7 21.9,-1.05 2,5.23 -5.21,10.06 -9.05,11 -8.38,2 -14.58,6.21 -17.95,6.92 -2.5,0.53 -5.75,0.88 -7.75,-1.09 -2.39,-2.36 -2.19,-11.11 0.16,-14.24 z"
         id="path88" />
      <path
         class="cls-18"
         d="m 179.71,463.89 c 3.37,-0.7 9.57,-4.88 17.95,-6.91 3.22,-0.78 8.76,-4.3 9.32,-8.5 0.74,4.81 -5.74,9.08 -9.32,9.94 -8.38,2 -14.58,6.21 -17.95,6.92 -2.5,0.53 -5.75,0.88 -7.75,-1.09 a 5,5 0 0 1 -1.1,-2 c 2.92,2.42 6.35,2.17 8.85,1.64 z"
         id="path90" />
      <path
         class="cls-17"
         d="m 145.21,437.93 a 16.78,16.78 0 0 0 12.69,-1.53 c 3.06,0.09 19.64,-7 21.9,-1 2,5.23 -5.21,10.06 -9.05,11 -8.38,2 -14.58,6.21 -17.94,6.92 -2.51,0.53 -5.76,0.88 -7.75,-1.1 -2.4,-2.42 -2.19,-11.17 0.15,-14.29 z"
         id="path92" />
      <path
         class="cls-18"
         d="m 152.81,451.81 c 3.36,-0.71 9.56,-4.88 17.94,-6.91 3.22,-0.78 8.76,-4.31 9.32,-8.5 0.75,4.81 -5.74,9.08 -9.32,9.94 -8.38,2 -14.58,6.21 -17.94,6.92 -2.51,0.53 -5.76,0.88 -7.75,-1.1 a 4.76,4.76 0 0 1 -1.1,-2 c 2.91,2.42 6.34,2.18 8.85,1.65 z"
         id="path94" />
      <path
         id="_Контур_8"
         data-name="&lt;Контур&gt;"
         class="cls-19"
         d="m 144.88,392.86 a 101.35,101.35 0 0 1 3.83,-18.17 c 0,0 -1.14,-15.69 -1.71,-30.55 -0.65,-16.87 -6.5,-31.72 -1.89,-45.18 l 52.06,11.58 c 0,0 -3.15,67.26 -3.85,75.4 A 151.22,151.22 0 0 1 191,404.82 c -2.38,13.06 -6.24,44.12 -6.24,44.12 -5.51,3.2 -12.73,1.43 -12.73,1.43 0,0 0.4,-39.28 0.75,-48.69 0.43,-11.49 0.78,-10.61 0.78,-10.61 l -1.72,-28.61 -1.12,-14.24 c 0,0 -1.44,10.45 -2.38,19.78 -0.82,8.14 -2.78,15.5 -5,30.64 -1.9,13.14 -5,39.54 -5,39.54 -5.5,3.2 -13,0.55 -13,0.55 0,0 -1.95,-34.47 -0.46,-45.87 z" />
      <path
         id="_Контур_9"
         data-name="&lt;Контур&gt;"
         class="cls-11"
         d="m 152.48,218.93 c 4,0.2 6.92,1.22 7.42,0 a 52.39,52.39 0 0 0 0.9,-6.2 c -0.46,-1.15 -0.85,-2.38 -0.85,-2.38 -5,-3.07 -6.55,-8.45 -7.21,-14.71 -1.11,-10.71 4.67,-20.09 15.38,-21.21 10.07,-1 17.48,6 19.45,15.75 1.07,4.79 3.19,13.86 0.32,21.75 -1.6,4.41 -3.66,7.91 -5.73,8.59 A 51.23,51.23 0 0 1 176.21,220 v 0 c 0,0 -0.53,3 -0.9,4.88 -0.37,1.88 -0.22,2.92 3.58,5.27 3.8,2.35 -5.75,7.15 -12,6.68 -6.25,-0.47 -13.25,-4.24 -15.18,-8.28 -2.13,-4.45 -1.95,-9.75 0.77,-9.62 z" />
      <path
         id="_Контур_10"
         data-name="&lt;Контур&gt;"
         class="cls-12"
         d="m 158.22,219.52 c -1.1,2.74 1.69,6.09 9.14,8.43 7.45,2.34 8.11,-0.67 8.11,-0.67 0,0 10.92,5 14.47,7.45 4.47,3.13 6.45,12.17 7.06,27.43 0.69,17.66 0.75,43.86 0.17,48.38 0,0 -8.35,8.32 -19,7.44 -10.65,-0.88 -28.67,-10.33 -33,-17.64 0.12,-15.48 1.93,-18 -0.58,-26.92 -5.74,-20.42 -8.76,-28.78 -6,-42.35 2.3,-11.19 5.52,-12.58 9.94,-12.47 a 92,92 0 0 1 9.69,0.92 z" />
      <path
         id="_Контур_11"
         data-name="&lt;Контур&gt;"
         class="cls-11"
         d="m 213.8,276.76 c -8.77,2.21 -10.83,-3.32 -12,-7.9 -2.79,-11.09 -4.29,-21.1 -6.37,-27.39 -2.45,-7.42 -5,-8.61 -8.62,-10.05 -4.24,-1.7 -7.88,1.88 -6.47,11.32 1.67,11.18 3.86,19 8,32.25 1.09,3.45 3.53,9.59 7.2,12.55 4.52,3.66 11.34,3.5 21.65,0.94 4.4,-1.1 9.22,-3.73 17.54,-7.61 2.23,-1 4,-1.73 8.25,-3.73 4.25,-2 8.75,-5.33 11,-8.58 2.25,-3.25 2.54,-4.78 2.08,-5.52 -0.57,-0.93 -1.59,-0.73 -2.79,0.64 a 23.8,23.8 0 0 1 -6.31,5.84 c 0,0 2.77,-2.86 4.27,-4.72 a 23.58,23.58 0 0 0 3.32,-5.42 c 0.79,-1.9 -0.84,-4.47 -2.08,-3.12 -1.24,1.35 -1.83,2.73 -4.1,5.45 a 23.73,23.73 0 0 1 -4.07,3.87 44.57,44.57 0 0 0 3.75,-6 c 1.44,-2.94 1.42,-4.45 1.36,-5.44 -0.06,-0.99 -1.46,-2.17 -2.77,-0.3 -1.19,1.69 -2,4.33 -4.71,7.2 -2,2.08 -3.71,3.28 -3.76,2.7 -0.05,-0.58 1.21,-1.72 1.93,-4.14 0.72,-2.42 0,-5 -1.34,-5.26 -1.34,-0.26 -1.08,-0.2 -2.16,2.06 -1.08,2.26 -2.72,3.94 -4,7.25 -1.11,2.91 -1.61,4.09 -3.61,6.21 -2.09,2.26 -6.85,4.8 -15.19,6.9 z" />
      <path
         id="_Контур_12"
         data-name="&lt;Контур&gt;"
         class="cls-16"
         d="m 183.57,229.9 c 5.86,-0.86 10,1.78 12.58,10.65 2.58,8.87 4.4,16.16 4.4,16.16 a 15.94,15.94 0 0 1 -9.81,6.51 c -7,1.7 -9.53,-1.65 -9.53,-1.65 0,0 -2,-9.3 -3.16,-15.63 -1.16,-6.33 -1.73,-14.94 5.52,-16.04 z" />
      <path
         class="cls-20"
         d="m 187.23,188.81 c 0,0 9.26,-14.07 -10.79,-16.94 -14.46,-2.06 -23.76,7.23 -24.83,17.31 -1,9.63 4.91,19.63 9.19,23.6 2.09,0.75 6.59,1.18 12.5,-1.51 a 70.89,70.89 0 0 0 0.27,-7.89 c 0,0 -7.05,-14.83 13.66,-14.57 z"
         id="path101" />
    </g>
    <ellipse
       class="cls-15"
       cx="113.49454"
       cy="250.89229"
       rx="21.973673"
       ry="12.508343"
       id="ellipse104"
       style="stroke-width:0.909707" />
    <ellipse
       class="cls-21"
       cx="116.62838"
       cy="248.57124"
       rx="21.973673"
       ry="12.508343"
       id="ellipse106"
       style="stroke-width:0.909707" />
    <polygon
       class="cls-21"
       points="34.29,346.76 81.92,346.76 90.11,298.81 25.9,298.46 "
       id="polygon108"
       transform="matrix(0.91633333,0,0,0.90312944,63.481042,-63.730904)" />
    <ellipse
       class="cls-22"
       cx="116.62838"
       cy="205.27521"
       rx="29.441792"
       ry="16.75305"
       id="ellipse110"
       style="stroke-width:0.909707" />
    <path
       class="cls-23"
       d="m 116.62837,218.33448 c -7.21154,0 -13.93742,-1.56241 -18.940605,-4.40727 -4.28844,-2.44748 -6.753376,-5.5994 -6.753376,-8.65198 0,-3.05258 2.464936,-6.2045 6.753376,-8.64295 4.994015,-2.84486 11.729065,-4.4163 18.940605,-4.4163 7.21155,0 13.9466,1.57144 18.94978,4.4163 4.28844,2.43845 6.74421,5.59037 6.74421,8.64295 0,3.05258 -2.45577,6.2045 -6.74421,8.65198 -5.00318,2.84486 -11.72907,4.40727 -18.94978,4.40727 z"
       id="path112"
       style="stroke-width:0.909707" />
    <path
       class="cls-24"
       d="m 129.30127,192.08051 c 0,0 -0.57729,-35.36655 -12.6729,-47.86586 -14.76212,12.80637 -12.42547,47.92005 -12.42547,47.92005 l 12.60874,22.57823 v 0 c 1.6494,0.0542 12.48963,-22.63242 12.48963,-22.63242 z"
       id="path114"
       style="stroke-width:0.909707" />
    <path
       class="cls-25"
       d="m 116.81164,214.68584 c 0,0 -6.71672,-42.37483 -31.677641,-58.29701 0,0 -4.45338,58.04413 31.677641,58.29701 z"
       id="path116"
       style="stroke-width:0.909707" />
    <path
       class="cls-25"
       d="m 116.62837,214.68584 c 0,0 6.05697,-41.54396 30.38562,-56.5359 0,0 5.74541,56.28302 -30.38562,56.5359 z"
       id="path118"
       style="stroke-width:0.909707" />
  </g>
</svg>
